<svg xmlns="http://www.w3.org/2000/svg" xmlns:xlink="http://www.w3.org/1999/xlink" width="300" zoomAndPan="magnify" viewBox="0 16 225 76" height="140" preserveAspectRatio="xMidYMid meet" version="1.0"><defs><g/><clipPath id="1cb1e2bb06"><path d="M 5.042969 40.964844 L 33.101562 40.964844 L 33.101562 69.023438 L 5.042969 69.023438 Z M 5.042969 40.964844 " clip-rule="nonzero"/></clipPath><clipPath id="745acfe933"><path d="M 19.011719 54.933594 C 18.535156 62.816406 12.507812 68.84375 5.042969 69.023438 C 5.164062 61.5 11.191406 55.414062 19.011719 54.933594 Z M 19.011719 54.933594 C 26.894531 55.414062 32.921875 61.5 33.101562 69.023438 C 25.578125 68.84375 19.492188 62.816406 19.011719 54.933594 Z M 5.042969 40.964844 C 12.507812 41.085938 18.535156 47.113281 19.011719 54.933594 C 11.191406 54.457031 5.164062 48.429688 5.042969 40.964844 Z M 33.101562 40.964844 C 32.921875 48.429688 26.894531 54.457031 19.011719 54.933594 C 19.492188 47.113281 25.578125 41.085938 33.101562 40.964844 Z M 33.101562 40.964844 " clip-rule="nonzero"/></clipPath><clipPath id="30ff526b2a"><path d="M 0.0429688 0.964844 L 28.101562 0.964844 L 28.101562 29.023438 L 0.0429688 29.023438 Z M 0.0429688 0.964844 " clip-rule="nonzero"/></clipPath><clipPath id="e6d560d266"><path d="M 14.011719 14.933594 C 13.535156 22.816406 7.507812 28.84375 0.0429688 29.023438 C 0.164062 21.5 6.191406 15.414062 14.011719 14.933594 Z M 14.011719 14.933594 C 21.894531 15.414062 27.921875 21.5 28.101562 29.023438 C 20.578125 28.84375 14.492188 22.816406 14.011719 14.933594 Z M 0.0429688 0.964844 C 7.507812 1.085938 13.535156 7.113281 14.011719 14.933594 C 6.191406 14.457031 0.164062 8.429688 0.0429688 0.964844 Z M 28.101562 0.964844 C 27.921875 8.429688 21.894531 14.457031 14.011719 14.933594 C 14.492188 7.113281 20.578125 1.085938 28.101562 0.964844 Z M 28.101562 0.964844 " clip-rule="nonzero"/></clipPath><clipPath id="716bfd204e"><rect x="0" width="29" y="0" height="30"/></clipPath><clipPath id="2f7ec7fccb"><rect x="0" width="186" y="0" height="64"/></clipPath></defs><g clip-path="url(#1cb1e2bb06)"><g clip-path="url(#745acfe933)"><g transform="matrix(1, 0, 0, 1, 5, 40)"><g clip-path="url(#716bfd204e)"><g clip-path="url(#30ff526b2a)"><g clip-path="url(#e6d560d266)"><path fill="#ffe500" d="M 0.0429688 0.964844 L 28.101562 0.964844 L 28.101562 29.023438 L 0.0429688 29.023438 Z M 0.0429688 0.964844 " fill-opacity="1" fill-rule="nonzero"/></g></g></g></g></g></g><g transform="matrix(1, 0, 0, 1, 35, 20)"><g clip-path="url(#2f7ec7fccb)"><g fill="#ffffff" fill-opacity="1"><g transform="translate(0.367055, 47.629005)"><g><path d="M 14.546875 0.546875 C 10.773438 0.546875 7.757812 -0.695312 5.5 -3.1875 C 3.25 -5.675781 2.125 -9.007812 2.125 -13.1875 C 2.125 -17.363281 3.25 -20.695312 5.5 -23.1875 C 7.757812 -25.675781 10.773438 -26.921875 14.546875 -26.921875 C 17.859375 -26.921875 20.546875 -26.078125 22.609375 -24.390625 C 24.679688 -22.703125 26.046875 -20.457031 26.703125 -17.65625 L 22.078125 -15.75 C 21.453125 -20.539062 18.960938 -22.9375 14.609375 -22.9375 C 12.210938 -22.9375 10.332031 -22.082031 8.96875 -20.375 C 7.601562 -18.675781 6.921875 -16.28125 6.921875 -13.1875 C 6.921875 -10.101562 7.601562 -7.695312 8.96875 -5.96875 C 10.332031 -4.238281 12.210938 -3.375 14.609375 -3.375 C 18.960938 -3.375 21.453125 -5.789062 22.078125 -10.625 L 26.703125 -8.71875 C 26.046875 -5.925781 24.679688 -3.679688 22.609375 -1.984375 C 20.546875 -0.296875 17.859375 0.546875 14.546875 0.546875 Z M 14.546875 0.546875 "/></g></g></g><g fill="#ffffff" fill-opacity="1"><g transform="translate(26.961122, 47.629005)"><g><path d="M 23.15625 -3.203125 C 20.832031 -0.703125 17.835938 0.546875 14.171875 0.546875 C 10.503906 0.546875 7.515625 -0.703125 5.203125 -3.203125 C 2.898438 -5.710938 1.75 -9.039062 1.75 -13.1875 C 1.75 -17.332031 2.898438 -20.65625 5.203125 -23.15625 C 7.515625 -25.664062 10.503906 -26.921875 14.171875 -26.921875 C 17.835938 -26.921875 20.832031 -25.664062 23.15625 -23.15625 C 25.488281 -20.65625 26.65625 -17.332031 26.65625 -13.1875 C 26.65625 -9.039062 25.488281 -5.710938 23.15625 -3.203125 Z M 14.171875 -3.4375 C 16.535156 -3.4375 18.40625 -4.253906 19.78125 -5.890625 C 21.164062 -7.523438 21.859375 -9.957031 21.859375 -13.1875 C 21.859375 -16.425781 21.164062 -18.859375 19.78125 -20.484375 C 18.40625 -22.117188 16.535156 -22.9375 14.171875 -22.9375 C 11.847656 -22.9375 10.003906 -22.117188 8.640625 -20.484375 C 7.273438 -18.859375 6.59375 -16.425781 6.59375 -13.1875 C 6.59375 -9.957031 7.273438 -7.523438 8.640625 -5.890625 C 10.003906 -4.253906 11.847656 -3.4375 14.171875 -3.4375 Z M 14.171875 -3.4375 "/></g></g></g><g fill="#ffffff" fill-opacity="1"><g transform="translate(54.318132, 47.629005)"><g><path d="M 8.34375 0 L 3.59375 0 L 3.59375 -26.375 L 8.34375 -26.375 L 8.34375 -19.34375 C 8.914062 -21.5625 9.957031 -23.378906 11.46875 -24.796875 C 12.976562 -26.210938 14.953125 -26.921875 17.390625 -26.921875 C 20.003906 -26.921875 22.054688 -26.15625 23.546875 -24.625 C 25.035156 -23.101562 25.78125 -20.960938 25.78125 -18.203125 L 25.78125 0 L 21.09375 0 L 21.09375 -17.0625 C 21.09375 -20.945312 19.148438 -22.890625 15.265625 -22.890625 C 12.859375 -22.890625 11.101562 -22.160156 10 -20.703125 C 8.894531 -19.253906 8.34375 -17.332031 8.34375 -14.9375 Z M 8.34375 0 "/></g></g></g><g fill="#ffffff" fill-opacity="1"><g transform="translate(81.893124, 47.629005)"><g><path d="M 8.34375 0 L 3.59375 0 L 3.59375 -26.375 L 8.34375 -26.375 L 8.34375 -19.34375 C 8.914062 -21.5625 9.957031 -23.378906 11.46875 -24.796875 C 12.976562 -26.210938 14.953125 -26.921875 17.390625 -26.921875 C 20.003906 -26.921875 22.054688 -26.15625 23.546875 -24.625 C 25.035156 -23.101562 25.78125 -20.960938 25.78125 -18.203125 L 25.78125 0 L 21.09375 0 L 21.09375 -17.0625 C 21.09375 -20.945312 19.148438 -22.890625 15.265625 -22.890625 C 12.859375 -22.890625 11.101562 -22.160156 10 -20.703125 C 8.894531 -19.253906 8.34375 -17.332031 8.34375 -14.9375 Z M 8.34375 0 "/></g></g></g><g fill="#ffffff" fill-opacity="1"><g transform="translate(109.359124, 47.629005)"><g><path d="M 14.828125 0.546875 C 11.046875 0.546875 7.992188 -0.695312 5.671875 -3.1875 C 3.347656 -5.675781 2.1875 -9.007812 2.1875 -13.1875 C 2.1875 -17.332031 3.328125 -20.65625 5.609375 -23.15625 C 7.898438 -25.664062 10.878906 -26.921875 14.546875 -26.921875 C 18.253906 -26.921875 21.179688 -25.773438 23.328125 -23.484375 C 25.472656 -21.203125 26.546875 -18.113281 26.546875 -14.21875 C 26.546875 -13.457031 26.472656 -12.75 26.328125 -12.09375 L 6.765625 -12.09375 C 6.898438 -9.332031 7.6875 -7.1875 9.125 -5.65625 C 10.5625 -4.132812 12.460938 -3.375 14.828125 -3.375 C 18.890625 -3.375 21.703125 -5.101562 23.265625 -8.5625 L 26.15625 -5.28125 C 23.757812 -1.394531 19.984375 0.546875 14.828125 0.546875 Z M 14.546875 -22.9375 C 12.410156 -22.9375 10.664062 -22.3125 9.3125 -21.0625 C 7.96875 -19.8125 7.148438 -17.96875 6.859375 -15.53125 L 22.296875 -15.53125 C 22.035156 -17.925781 21.234375 -19.757812 19.890625 -21.03125 C 18.546875 -22.300781 16.765625 -22.9375 14.546875 -22.9375 Z M 14.546875 -22.9375 "/></g></g></g><g fill="#ffffff" fill-opacity="1"><g transform="translate(134.808762, 47.629005)"><g><path d="M 5.78125 0 L 0.328125 0 L 9.75 -13.296875 L 0.984375 -26.375 L 6.4375 -26.375 L 13.296875 -15.75 L 20.328125 -26.375 L 25.78125 -26.375 L 16.453125 -13.46875 L 25.390625 0 L 19.890625 0 L 15.484375 -6.859375 L 12.921875 -10.734375 L 10.359375 -6.859375 Z M 5.78125 0 "/></g></g></g><g fill="#ffffff" fill-opacity="1"><g transform="translate(158.950501, 47.629005)"><g><path d="M 5.78125 0 L 0.328125 0 L 9.75 -13.296875 L 0.984375 -26.375 L 6.4375 -26.375 L 13.296875 -15.75 L 20.328125 -26.375 L 25.78125 -26.375 L 16.453125 -13.46875 L 25.390625 0 L 19.890625 0 L 15.484375 -6.859375 L 12.921875 -10.734375 L 10.359375 -6.859375 Z M 5.78125 0 "/></g></g></g></g></g></svg>