<svg xmlns="http://www.w3.org/2000/svg" xmlns:xlink="http://www.w3.org/1999/xlink" width="2000" zoomAndPan="magnify" viewBox="0 0 1500 1499.999933" height="2000" preserveAspectRatio="xMidYMid meet" version="1.0"><defs><clipPath id="53f5f0662e"><path d="M 104.503906 75 L 1395.496094 75 L 1395.496094 1425 L 104.503906 1425 Z M 104.503906 75 " clip-rule="nonzero"/></clipPath><clipPath id="eda7105426"><path d="M 747.253906 747.128906 C 725.277344 1126.277344 447.851562 1416.382812 104.503906 1425 C 109.996094 1063.085938 387.421875 770.105469 747.253906 747.128906 Z M 747.253906 747.128906 C 1109.832031 770.105469 1387.257812 1063.085938 1395.496094 1425 C 1049.402344 1416.382812 769.226562 1126.277344 747.253906 747.128906 Z M 104.503906 75 C 447.851562 80.746094 725.277344 370.851562 747.253906 747.128906 C 387.421875 724.148438 109.996094 434.042969 104.503906 75 Z M 1395.496094 75 C 1387.257812 434.042969 1109.832031 724.148438 747.253906 747.128906 C 769.226562 370.851562 1049.402344 80.746094 1395.496094 75 Z M 1395.496094 75 " clip-rule="nonzero"/></clipPath><clipPath id="2c195c572b"><path d="M 0.503906 0 L 1291.496094 0 L 1291.496094 1350 L 0.503906 1350 Z M 0.503906 0 " clip-rule="nonzero"/></clipPath><clipPath id="19086014ac"><path d="M 643.253906 672.128906 C 621.277344 1051.277344 343.851562 1341.382812 0.503906 1350 C 5.996094 988.085938 283.421875 695.105469 643.253906 672.128906 Z M 643.253906 672.128906 C 1005.832031 695.105469 1283.257812 988.085938 1291.496094 1350 C 945.402344 1341.382812 665.226562 1051.277344 643.253906 672.128906 Z M 0.503906 0 C 343.851562 5.746094 621.277344 295.851562 643.253906 672.128906 C 283.421875 649.148438 5.996094 359.042969 0.503906 0 Z M 1291.496094 0 C 1283.257812 359.042969 1005.832031 649.148438 643.253906 672.128906 C 665.226562 295.851562 945.402344 5.746094 1291.496094 0 Z M 1291.496094 0 " clip-rule="nonzero"/></clipPath><clipPath id="0c89284c20"><rect x="0" width="1292" y="0" height="1350"/></clipPath></defs><g clip-path="url(#53f5f0662e)"><g clip-path="url(#eda7105426)"><g transform="matrix(1, 0, 0, 1, 104, 75)"><g clip-path="url(#0c89284c20)"><g clip-path="url(#2c195c572b)"><g clip-path="url(#19086014ac)"><path fill="#ffe500" d="M 0.503906 0 L 1291.496094 0 L 1291.496094 1351.511719 L 0.503906 1351.511719 Z M 0.503906 0 " fill-opacity="1" fill-rule="nonzero"/></g></g></g></g></g></g></svg>