<?xml version="1.0" encoding="utf-8"?><!--Generator: Adobe Illustrator 18.1.1, SVG Export Plug-In . SVG Version: 6.00 Build 0)--><svg xmlns="http://www.w3.org/2000/svg" xmlns:xlink="http://www.w3.org/1999/xlink" id="Layer_1" width="512px" height="512px" x="0px" y="0px" enable-background="new 0 0 512 512" version="1.1" viewBox="0 0 512 512" xml:space="preserve"><path fill="#FFCC00" d="M512,472c0,22.1-17.9,40-40,40H40c-22.1,0-40-17.9-40-40V40C0,17.9,17.9,0,40,0h432c22.1,0,40,17.9,40,40
	V472z"/><rect width="512" height="71.8" y="275.2" fill="#FFFFFF"/><rect width="512" height="2" y="293.9" fill="#FFC200"/><rect width="512" height="2" y="310.2" fill="#FFC200"/><rect width="512" height="2" y="328.6" fill="#FFC200"/><rect width="512" height="2" y="323.7" fill="none"/><path fill="#D40511" d="M187.7,328.7h-5.5l5.6-26.8h10.9c1.9,0,3.5,0.2,4.6,0.7s2,1.2,2.7,2.3s1,2.3,1,3.8c0,1.4-0.3,2.7-0.8,4
	c-0.5,1.3-1.2,2.3-1.9,3.1c-0.8,0.8-1.6,1.4-2.5,1.7c-0.9,0.4-2.1,0.7-3.6,0.9c-0.9,0.1-2.5,0.2-4.9,0.2h-3.5L187.7,328.7z
	 M190.8,314h1.7c2.9,0,4.9-0.2,5.8-0.5s1.7-1,2.3-1.8s0.8-1.7,0.8-2.7c0-0.6-0.1-1.2-0.4-1.6c-0.3-0.4-0.7-0.7-1.2-0.9
	c-0.5-0.2-1.7-0.3-3.5-0.3h-4L190.8,314z"/><path fill="#D40511" d="M222,322.7h-10.6l-3.2,5.9h-5.7l15.2-26.8h6.1l4.4,26.8h-5.2L222,322.7z M221.3,318.3l-1.6-10.8l-6.5,10.8
	H221.3z"/><path fill="#D40511" d="M237.1,328.7h-5.5l5.6-26.8h11.9c2.1,0,3.6,0.2,4.8,0.6c1.1,0.4,2.1,1.2,2.8,2.3c0.7,1.1,1.1,2.5,1.1,4.1
	c0,2.3-0.7,4.2-2.1,5.6s-3.4,2.4-6.2,2.8c0.7,0.6,1.4,1.5,2,2.5c1.2,2.1,2.6,5.1,4.1,8.9h-5.9c-0.5-1.5-1.4-3.9-2.8-7.1
	c-0.8-1.7-1.6-2.9-2.4-3.5c-0.5-0.4-1.4-0.5-2.7-0.5h-2.3L237.1,328.7z M240.3,313.5h2.9c3,0,4.9-0.2,5.9-0.5c1-0.4,1.7-0.9,2.3-1.7
	s0.8-1.5,0.8-2.4c0-1-0.4-1.7-1.2-2.2c-0.5-0.3-1.5-0.4-3.2-0.4h-6.1L240.3,313.5z"/><path fill="#D40511" d="M278,319l5.6,0.8c-1.1,3-2.7,5.3-4.9,6.9s-4.7,2.4-7.6,2.4c-3.3,0-5.9-1-7.7-3c-1.8-2-2.8-4.8-2.8-8.6
	c0-3.1,0.6-5.8,1.9-8.4c1.2-2.5,3-4.5,5.2-5.8c2.2-1.3,4.6-2,7.2-2c2.9,0,5.3,0.8,7,2.3c1.8,1.6,2.8,3.7,3.2,6.4l-5.3,0.5
	c-0.3-1.6-0.9-2.7-1.7-3.4s-2-1.1-3.3-1.1c-1.5,0-3,0.5-4.3,1.4c-1.3,0.9-2.4,2.4-3.2,4.3c-0.8,2-1.2,3.9-1.2,5.9
	c0,2.1,0.5,3.8,1.5,5c1,1.2,2.3,1.8,3.9,1.8c1.4,0,2.7-0.5,3.9-1.4C276.5,322.2,277.4,320.8,278,319z"/><path fill="#D40511" d="M285.7,328.7l5.6-26.8h19.9l-0.9,4.5h-14.4l-1.3,6.1h13.9l-0.9,4.5h-13.9l-1.7,7.3h15.6l-1,4.5H285.7z"/><path fill="#D40511" d="M310.8,328.7l5.6-26.8h5.5l-4.7,22.4h13.7l-0.9,4.5H310.8z"/><g><path fill="#D40511" d="M198.9,224.5c4.5-9.1,8.3-17,10-20.4c8.1-16.3-0.3-39.1-28.3-39.1h-92l-15.9,32.3h85.8
		c6.7,0,9.1,1.4,7.1,5.6c-2,4.1-6.2,12.7-7.4,15.1c-1.4,2.9-2.1,6.5,2.4,6.5C163.4,224.5,198.9,224.5,198.9,224.5L198.9,224.5z"/><path fill="#D40511" d="M141.6,227.5c-4.5,0-4.9-3-3.8-5.3c0.9-1.9,6.9-14.1,8.1-16.4c1.4-2.9,1-5.9-5.9-5.9h-38.9l-29.3,59.6
		c0,0,56.1,0,77.2,0c21.1,0,36.4-7.6,46.9-28.9c0.5-1,1-2.1,1.5-3.1H141.6L141.6,227.5z"/><polygon fill="#D40511" points="206.3,227.5 190.6,259.6 238.5,259.6 254.3,227.5 206.3,227.5 	"/><polygon fill="#D40511" points="273.7,227.5 258,259.6 305.9,259.6 321.7,227.5 273.7,227.5 	"/><polygon fill="#D40511" points="323.2,224.5 352.4,165 304.5,165 288.7,197.3 269.1,197.3 285,165 237,165 207.9,224.5 
		323.2,224.5 	"/><polygon fill="#D40511" points="364.6,165 412.6,165 383.3,224.5 335.4,224.5 364.6,165 	"/><path fill="#D40511" d="M333.9,227.5l107.3,0l-15.7,32c0,0-72.8,0-79.1,0c-16.5,0-21.8-12.6-15.9-24.8
		C331,233.4,333.9,227.5,333.9,227.5L333.9,227.5z"/><polygon fill="#D40511" points="80,227.5 75.4,237 0,237 0,227.5 80,227.5 	"/><polygon fill="#D40511" points="74.5,238.8 69.8,248.3 0,248.3 0,238.8 74.5,238.8 	"/><polygon fill="#D40511" points="68.9,250.1 64.2,259.6 0,259.6 0,250.1 68.9,250.1 	"/><polygon fill="#D40511" points="512,237 443.2,237 447.8,227.5 512,227.5 	"/><polygon fill="#D40511" points="512,248.3 437.6,248.3 442.2,238.8 512,238.8 	"/><polygon fill="#D40511" points="512,259.6 432,259.6 436.7,250.1 512,250.1 	"/></g></svg>