<svg version="1.1" id="DPD_Black" xmlns:x="ns_extend;" xmlns:i="ns_ai;" xmlns:graph="ns_graphs;" xmlns="http://www.w3.org/2000/svg" xmlns:xlink="http://www.w3.org/1999/xlink" x="0px" y="0px" viewBox="0 0 171.3 75" style="enable-background:new 0 0 171.3 75;" xml:space="preserve">
 <style type="text/css">
  .st0{fill:#414042;}
	.st1{fill:url(#SVGID_1_);}
 </style>
 <metadata>
  <sfw xmlns="ns_sfw;">
   <slices>
   </slices>
   <sliceSourceBounds bottomLeftOrigin="true" height="75" width="171.3" x="277.6" y="6.1">
   </sliceSourceBounds>
  </sfw>
 </metadata>
 <g>
  <path class="st0" d="M111.2,55.2c-3.2,0.9-7.4,1.3-11.1,1.3c-9.4,0-15.6-5-15.6-14.2c0-8.7,5.8-14.3,14.3-14.3
		c1.9,0,3.9,0.2,5.1,0.9V16.3h7.3L111.2,55.2L111.2,55.2z M103.9,35.3c-1.2-0.5-2.7-0.9-4.5-0.9c-4.5,0-7.4,2.7-7.4,7.6
		c0,5.2,3.2,8.1,8.4,8.1c0.9,0,2.3-0.1,3.5-0.3V35.3z M171.3,55.2c-3.2,0.9-7.4,1.3-11.1,1.3c-9.4,0-15.6-5-15.6-14.2
		c0-8.7,5.8-14.3,14.3-14.3c1.9,0,3.9,0.2,5.1,0.9V16.3h7.3L171.3,55.2L171.3,55.2z M164,35.3c-1.2-0.5-2.7-0.9-4.5-0.9
		c-4.5,0-7.4,2.7-7.4,7.6c0,5.2,3.2,8.1,8.4,8.1c0.9,0,2.3-0.1,3.5-0.3V35.3z M122.7,35.3c1.2-0.5,2.9-0.7,4.4-0.7
		c4.5,0,7.6,2.6,7.6,7.3c0,5.5-3.4,8-8.1,8.1v6.4c0.1,0,0.2,0,0.4,0c9.5,0,15.1-5.3,15.1-14.8c0-8.6-6-13.7-15-13.7
		c-4.5,0-9,1-11.9,2.3v36.6h7.4L122.7,35.3L122.7,35.3z">
  </path>
  <linearGradient id="SVGID_1_" gradientUnits="userSpaceOnUse" x1="853.55" y1="-312.2374" x2="995.8518" y2="-431.6428" gradientTransform="matrix(0.229 0 0 0.229 -195.1519 135.152)">
   <stop offset="0" style="stop-color:#A90034">
   </stop>
   <stop offset="0.2717" style="stop-color:#BB0033">
   </stop>
   <stop offset="0.7226" style="stop-color:#D30032">
   </stop>
   <stop offset="1" style="stop-color:#DC0032">
   </stop>
  </linearGradient>
  <path class="st1" d="M44.7,33.5c-0.3,0.2-0.8,0.2-1.1,0l-1.7-1c-0.1-0.1-0.3-0.2-0.4-0.4c0,0,0,0,0,0c-0.1-0.2-0.2-0.4-0.2-0.5l0-2
		c0-0.3,0.2-0.8,0.5-0.9l20.9-12.2l-29.4-16C33,0.1,32.6,0,32.2,0c-0.4,0-0.9,0.1-1.2,0.3l-29.4,16l32.9,19.2
		c0.3,0.2,0.5,0.6,0.5,0.9v27.9c0,0.4-0.3,0.8-0.6,0.9l-1.8,1c-0.1,0.1-0.3,0.1-0.5,0.1c0,0,0,0,0,0c-0.2,0-0.4,0-0.6-0.1l-1.8-1
		c-0.3-0.2-0.5-0.6-0.5-0.9l0-24.9c0-0.2-0.1-0.4-0.3-0.5L0,22v33.1c0,0.7,0.5,1.7,1.2,2L31,74.7c0.3,0.2,0.7,0.3,1.2,0.3
		c0.4,0,0.8-0.1,1.2-0.3l29.9-17.6c0.6-0.4,1.2-1.3,1.2-2V22L44.7,33.5z">
  </path>
 </g>
</svg>