<svg xmlns="http://www.w3.org/2000/svg" id="Warstwa_1" version="1.1" viewBox="0.0 0.0 443.0 266.0" width="408.3812487121247" height="244.86922530199666">
  <!-- Generator: Adobe Illustrator 29.1.0, SVG Export Plug-In . SVG Version: 2.1.0 Build 142)  -->
  <defs>
    <style>
      .st0 {
        fill: #ffcb00;
      }

      .st0, .st1 {
        fill-rule: evenodd;
      }

      .st2 {
        fill: none;
      }

      .st3, .st1 {
        fill: #13100d;
      }
    </style>
  </defs>
  <path class="st1" d="M264.8,108.5c-3.7-3.6-9-5.5-15.9-5.5h-21.3v59.7h10v-18.9h12.1c6.3,0,11.4-1.8,15.1-5.6,3.7-3.7,5.6-8.6,5.6-14.7s-1.9-11.4-5.5-15.1ZM257.4,131.2c-1.9,1.9-4.5,2.8-7.8,2.8h-12.1v-21.6h12.3c6.9,0,10.4,3.6,10.4,10.9s-.9,6-2.8,7.9Z"/>
  <rect class="st3" x="160.2" y="103" width="10" height="59.7"/>
  <path class="st1" d="M377.8,163.4c1.7,0,3.4-.2,5-.6h0v-8.2c-.8.1-1.7.2-2.5.2-2.5,0-4.1-.6-4.9-1.6-.7-.8-1-2.5-1-5.2v-24.2h8.6v-8h-8.6v-12.9h-9.7v45.7c0,5.5.7,9.2,2.1,11.1,1.8,2.5,5.4,3.7,10.9,3.7Z"/>
  <path class="st1" d="M208,162.7h9.8v-30.3c0-5.1-1.4-9-4.2-11.8-2.8-2.8-6.5-4.5-11.1-4.5-10.7,0-22.6,2.7-22.6,2.7v44h9.8v-36.9c3.4-.7,8.1-1.4,11-1.2,4.7.4,7.3,3.6,7.3,9.6v28.5Z"/>
  <path class="st1" d="M310.6,121.7c-4-4.3-9.1-6.5-15.5-6.5s-11.4,2.2-15.4,6.5c-4,4.3-6,10.1-6,17.3s2,13,6,17.3c3.9,4.4,9.1,6.6,15.4,6.6s11.4-2.2,15.4-6.6c4-4.4,6-10.2,6-17.3s-2-12.9-5.9-17.3ZM303.3,149.7c-2.1,2.6-4.8,3.9-8.2,3.9s-6.1-1.3-8.2-3.9c-2-2.6-3.1-6.2-3.1-10.7s1-8,3.1-10.6c2.1-2.7,4.8-4,8.2-4s6.1,1.3,8.2,3.9c2,2.6,3.1,6.2,3.1,10.7s-1,8.1-3.1,10.7Z"/>
  <path class="st1" d="M353.8,158.6c3.4-2.9,5.2-6.6,5.2-11.1,0-7-4.3-11.3-12.9-12.9-3.6-.7-7.3-1.3-11-1.9-2.6-.7-3.9-2-3.9-3.9,0-3.3,2.8-4.9,8.6-4.9s8.5,1.6,12,4.7l5.8-6.2c-4.8-4.6-10.7-6.8-17.5-6.8s-10.2,1.4-13.6,4.1c-3.4,2.8-5.1,6.2-5.1,10.3s1.4,7.1,4.2,9.1c2.4,1.7,6.4,2.9,12,3.7,4.7.7,7.5,1.3,8.6,1.7,1.9.7,2.8,2,2.8,3.9s-.8,3-2.4,4.1c-1.6,1.1-3.8,1.7-6.5,1.7-4.9,0-9.2-1.8-12.9-5.5l-7.4,6.3c4.8,5.3,11.6,8,20.5,8s10.2-1.4,13.7-4.3h0Z"/>
  <path class="st0" d="M95.4,133.3s-7.8,3-17.5,3-17.5-3-17.5-3c0,0,7.8-3,17.5-3s17.5,3,17.5,3Z"/>
  <path class="st0" d="M119.5,88.8s-6.9-4.7-12.3-12.5c-5.4-7.9-7.2-15.9-7.2-15.9,0,0,6.9,4.7,12.3,12.5,5.4,7.9,7.2,15.9,7.2,15.9Z"/>
  <path class="st0" d="M101.8,108s-8.4-.9-16.9-5.4c-8.5-4.4-14-10.7-14-10.7,0,0,8.4.9,16.9,5.4,8.5,4.4,14,10.7,14,10.7Z"/>
  <path class="st0" d="M119.5,177.7s-6.9,4.7-12.3,12.5c-5.4,7.9-7.2,15.9-7.2,15.9,0,0,6.9-4.7,12.3-12.5,5.4-7.9,7.2-15.9,7.2-15.9Z"/>
  <path class="st0" d="M101.8,158.5s-8.4.9-16.9,5.4c-8.5,4.4-14,10.7-14,10.7,0,0,8.4-.9,16.9-5.4s14-10.7,14-10.7Z"/>
  <path class="st0" d="M122,147.9h0c6.3,16.1,16.4,27.7,34.5,30.4-2.1.3-4.2.4-6.3.5-25.6.1-46.4-20.2-46.6-45.3s20.5-45.6,46.1-45.7c2.3,0,4.5.1,6.7.5-20.7,2.6-34.5,18.6-37.2,39.1-.9,12.5,13.6,16.7,13.6,16.7,0,0-5.9,3.9-10.9,4t0,0h0Z"/>
  <rect class="st2" width="443" height="266"/>
</svg>