<svg enable-background="new 0 0 512 512" height="512" viewBox="0 0 512 512" width="512" xmlns="http://www.w3.org/2000/svg" xmlns:xlink="http://www.w3.org/1999/xlink"><linearGradient id="a" gradientUnits="userSpaceOnUse" x1="0" x2="512" y1="256" y2="256"><stop offset=".7455" stop-color="#d71f29"/><stop offset="1" stop-color="#d71f29"/></linearGradient><path d="m512 472c0 22.1-17.9 40-40 40h-432c-22.1 0-40-17.9-40-40v-432c0-22.1 17.9-40 40-40h432c22.1 0 40 17.9 40 40z" fill="url(#a)"/><g fill="#fff"><path d="m358 148.3c-34.4 75.1-114.7 152-179.4 171.5-64.8 19.6-89.2-25.6-54.4-100.9l-34.3 10.4c-53.1 115-16 184.1 83 154.1 98.7-30 221.3-147.3 273.6-261.8z"/><path d="m139.6 214.2c-17.7 38.4-5.3 61.4 27.7 51.5 33-10 74-49.2 91.6-87.5z"/></g></svg>