<svg version="1.1" id="Layer_1" xmlns:x="ns_extend;" xmlns:i="ns_ai;" xmlns:graph="ns_graphs;" xmlns="http://www.w3.org/2000/svg" xmlns:xlink="http://www.w3.org/1999/xlink" x="0px" y="0px" viewBox="0 0 84 100" style="enable-background:new 0 0 84 100;" xml:space="preserve">
 <style type="text/css">
  .st0{fill:#330000;}
	.st1{fill:#FFBE00;}
 </style>
 <metadata>
  <sfw xmlns="ns_sfw;">
   <slices>
   </slices>
   <sliceSourceBounds bottomLeftOrigin="true" height="100" width="84" x="136.3" y="175.6">
   </sliceSourceBounds>
  </sfw>
 </metadata>
 <g>
  <g>
   <path class="st0" d="M12.5,82.6C5.4,76.8,1.6,68.4,1.6,58.4V10.9C12.9,5,26.4,2,42,2c15.6,0,29.1,3,40.4,9v47.5
			c0,10-3.8,18.4-10.9,24.2C65,87.9,44.4,97,42,98C39.6,97,19,87.9,12.5,82.6L12.5,82.6z M12.5,82.6">
   </path>
   <path class="st1" d="M80.2,10.4C75,9.9,69.6,9.6,64.1,9.6c-20.4,0-42.2,4.4-60.2,20.9v28.3c0,9.2,3.4,16.9,9.9,22.2
			c5.7,4.6,23.3,12.6,28.3,14.8c4.9-2.2,22.4-10,28.3-14.8c6.5-5.4,9.9-12.9,9.9-22.2V10.4 M7.6,55.8v-23h7.3v23.3
			c0,2.1,0.5,5.1,3.9,5.1c1.2,0,2.4-0.3,3.5-0.9V32.9h7.3v31.7c-3.3,2.1-7.1,3.1-11,2.9C11.3,67.5,7.6,63.6,7.6,55.8 M40.6,82.4
			h-7.3V34.7c3-1.8,6.4-2.7,9.9-2.6c8.7,0,13.5,6.6,13.5,17.3c0,10.7-4.7,18-12.8,18c-1.1,0-2.2-0.1-3.3-0.4V82.4z M40.6,61
			c0.8,0.3,1.6,0.4,2.4,0.4c4.2,0,6.2-3.9,6.2-11.9c0-8.2-1.8-11.6-6-11.6c-0.9,0-1.8,0.2-2.6,0.5L40.6,61z M58.3,41.7
			c0.1-5.3,4.5-9.6,9.8-9.5c2.9-0.2,5.7,0.7,8,2.4v6.4c-1.7-1.8-4.1-2.9-6.5-3c-2.1,0-4.2,0.9-4.3,3.5c-0.1,2.7,2.1,3.7,4.8,5.3
			c6.1,3.6,7.3,6.8,7.1,11.1c-0.1,4.7-3.4,9.8-10.6,9.8c-2.8,0-5.6-0.8-8-2.3v-6.7c1.9,1.7,4.4,2.8,7,3c2.7,0,4.4-1.5,4.4-4.1
			c-0.1-2.3-1.4-3.5-4.6-5.4C59.4,48.4,58.3,45.5,58.3,41.7 M11.3,83.9C3.9,77.9,0,69.2,0,58.8V9.3C11.7,3.1,25.8,0,42,0
			s30.3,3.1,42,9.3v49.5c0,10.4-3.9,19.1-11.3,25.2c-6.8,5.5-28.2,15-30.7,16C39.5,98.9,18.1,89.5,11.3,83.9L11.3,83.9z M68.8,94.3
			v4.3h0.8v-1.8h0.1c0.1,0.1,1.2,1.8,1.2,1.8h0.9c0,0-1.2-1.7-1.3-1.9c0.6-0.1,1-0.6,1-1.1c0-0.8-0.7-1.4-1.4-1.3L68.8,94.3z
			 M70,94.9c0.7,0,0.8,0.3,0.8,0.6c0,0.4-0.2,0.7-1,0.7h-0.1v-1.3H70z M73,96.5c0,2.6-3.1,3.9-5,2s-0.5-5,2.1-5
			C71.7,93.6,73,94.9,73,96.5 M70.1,92.9c-3.1,0-4.7,3.8-2.5,6c2.2,2.2,6,0.7,6-2.5C73.6,94.5,72,92.9,70.1,92.9">
   </path>
  </g>
 </g>
</svg>